{
	"patcher" : 	{
		"fileversion" : 1,
		"rect" : [ 643.0, 452.0, 678.0, 289.0 ],
		"bglocked" : 0,
		"defrect" : [ 643.0, 452.0, 678.0, 289.0 ],
		"openrect" : [ 0.0, 0.0, 0.0, 0.0 ],
		"openinpresentation" : 0,
		"default_fontsize" : 10.0,
		"default_fontface" : 0,
		"default_fontname" : "Helvetica",
		"gridonopen" : 0,
		"gridsize" : [ 15.0, 15.0 ],
		"gridsnaponopen" : 0,
		"toolbarvisible" : 1,
		"boxanimatetime" : 200,
		"imprint" : 0,
		"metadata" : [  ],
		"boxes" : [ 			{
				"box" : 				{
					"maxclass" : "number",
					"numoutlets" : 2,
					"outlettype" : [ "int", "bang" ],
					"fontsize" : 10.0,
					"numinlets" : 1,
					"patching_rect" : [ 572.0, 77.0, 50.0, 16.0 ],
					"id" : "obj-30",
					"fontname" : "Helvetica"
				}

			}
, 			{
				"box" : 				{
					"maxclass" : "newobj",
					"text" : "p resynchronize state between Control and Max",
					"numoutlets" : 0,
					"fontsize" : 10.0,
					"numinlets" : 1,
					"patching_rect" : [ 375.0, 248.0, 222.0, 16.0 ],
					"id" : "obj-27",
					"fontname" : "Helvetica",
					"patcher" : 					{
						"fileversion" : 1,
						"rect" : [ 75.0, 119.0, 640.0, 480.0 ],
						"bglocked" : 0,
						"defrect" : [ 75.0, 119.0, 640.0, 480.0 ],
						"openrect" : [ 0.0, 0.0, 0.0, 0.0 ],
						"openinpresentation" : 0,
						"default_fontsize" : 12.0,
						"default_fontface" : 0,
						"default_fontname" : "Arial",
						"gridonopen" : 0,
						"gridsize" : [ 15.0, 15.0 ],
						"gridsnaponopen" : 0,
						"toolbarvisible" : 1,
						"boxanimatetime" : 200,
						"imprint" : 0,
						"metadata" : [  ],
						"boxes" : [ 							{
								"box" : 								{
									"maxclass" : "comment",
									"text" : "Future Work...",
									"numoutlets" : 0,
									"fontsize" : 12.0,
									"numinlets" : 1,
									"patching_rect" : [ 153.0, 210.0, 150.0, 20.0 ],
									"id" : "obj-3",
									"fontname" : "Arial"
								}

							}
, 							{
								"box" : 								{
									"maxclass" : "inlet",
									"numoutlets" : 1,
									"outlettype" : [ "bang" ],
									"numinlets" : 0,
									"patching_rect" : [ 91.0, 155.0, 25.0, 25.0 ],
									"id" : "obj-1",
									"comment" : ""
								}

							}
 ],
						"lines" : [  ]
					}
,
					"saved_object_attributes" : 					{
						"globalpatchername" : "",
						"default_fontface" : 0,
						"fontface" : 0,
						"fontsize" : 12.0,
						"default_fontname" : "Arial",
						"default_fontsize" : 12.0,
						"fontname" : "Arial"
					}

				}

			}
, 			{
				"box" : 				{
					"maxclass" : "newobj",
					"text" : "s control_master",
					"numoutlets" : 0,
					"fontsize" : 10.0,
					"numinlets" : 1,
					"patching_rect" : [ 546.0, 212.0, 84.0, 16.0 ],
					"id" : "obj-21",
					"fontname" : "Helvetica"
				}

			}
, 			{
				"box" : 				{
					"maxclass" : "newobj",
					"text" : "pv id",
					"numoutlets" : 1,
					"outlettype" : [ "" ],
					"fontsize" : 10.0,
					"numinlets" : 1,
					"patching_rect" : [ 546.0, 154.0, 32.0, 16.0 ],
					"id" : "obj-23",
					"fontname" : "Helvetica"
				}

			}
, 			{
				"box" : 				{
					"maxclass" : "button",
					"numoutlets" : 1,
					"outlettype" : [ "bang" ],
					"numinlets" : 1,
					"patching_rect" : [ 546.0, 124.0, 20.0, 20.0 ],
					"id" : "obj-24"
				}

			}
, 			{
				"box" : 				{
					"maxclass" : "newobj",
					"text" : "sprintf add Slider %d",
					"numoutlets" : 1,
					"outlettype" : [ "" ],
					"fontsize" : 10.0,
					"numinlets" : 1,
					"patching_rect" : [ 546.0, 184.0, 103.0, 16.0 ],
					"id" : "obj-26",
					"fontname" : "Helvetica"
				}

			}
, 			{
				"box" : 				{
					"maxclass" : "newobj",
					"text" : "t b b",
					"numoutlets" : 2,
					"outlettype" : [ "bang", "bang" ],
					"fontsize" : 10.0,
					"numinlets" : 1,
					"patching_rect" : [ 532.0, 101.0, 32.5, 16.0 ],
					"id" : "obj-20",
					"fontname" : "Helvetica"
				}

			}
, 			{
				"box" : 				{
					"maxclass" : "newobj",
					"text" : "select",
					"numoutlets" : 2,
					"outlettype" : [ "bang", "" ],
					"fontsize" : 10.0,
					"numinlets" : 2,
					"patching_rect" : [ 532.0, 77.0, 37.0, 16.0 ],
					"id" : "obj-19",
					"fontname" : "Helvetica"
				}

			}
, 			{
				"box" : 				{
					"maxclass" : "newobj",
					"text" : "pv id",
					"numoutlets" : 1,
					"outlettype" : [ "" ],
					"fontsize" : 10.0,
					"numinlets" : 1,
					"patching_rect" : [ 550.0, 52.0, 32.0, 16.0 ],
					"id" : "obj-18",
					"fontname" : "Helvetica"
				}

			}
, 			{
				"box" : 				{
					"maxclass" : "newobj",
					"text" : "t i b",
					"numoutlets" : 2,
					"outlettype" : [ "int", "bang" ],
					"fontsize" : 10.0,
					"numinlets" : 1,
					"patching_rect" : [ 532.0, 31.0, 32.5, 16.0 ],
					"id" : "obj-14",
					"fontname" : "Helvetica"
				}

			}
, 			{
				"box" : 				{
					"maxclass" : "newobj",
					"text" : "r please-add-yourself",
					"numoutlets" : 1,
					"outlettype" : [ "" ],
					"fontsize" : 10.0,
					"numinlets" : 0,
					"patching_rect" : [ 532.0, 8.0, 104.0, 16.0 ],
					"id" : "obj-7",
					"fontname" : "Helvetica"
				}

			}
, 			{
				"box" : 				{
					"maxclass" : "comment",
					"text" : "js /Users/charlie/Desktop/makeSend.js",
					"numoutlets" : 0,
					"fontsize" : 10.0,
					"numinlets" : 1,
					"patching_rect" : [ 117.0, 148.0, 182.0, 16.0 ],
					"id" : "obj-11",
					"fontname" : "Helvetica"
				}

			}
, 			{
				"box" : 				{
					"maxclass" : "newobj",
					"text" : "s control_master",
					"numoutlets" : 0,
					"fontsize" : 10.0,
					"numinlets" : 1,
					"patching_rect" : [ 315.0, 135.0, 84.0, 16.0 ],
					"id" : "obj-6",
					"fontname" : "Helvetica"
				}

			}
, 			{
				"box" : 				{
					"maxclass" : "newobj",
					"text" : "print SETTING",
					"numoutlets" : 0,
					"fontsize" : 10.0,
					"numinlets" : 1,
					"patching_rect" : [ 405.0, 135.0, 76.0, 16.0 ],
					"id" : "obj-25",
					"fontname" : "Helvetica"
				}

			}
, 			{
				"box" : 				{
					"maxclass" : "newobj",
					"text" : "pv id",
					"numoutlets" : 1,
					"outlettype" : [ "" ],
					"fontsize" : 10.0,
					"numinlets" : 1,
					"patching_rect" : [ 375.0, 75.0, 32.0, 16.0 ],
					"id" : "obj-17",
					"fontname" : "Helvetica"
				}

			}
, 			{
				"box" : 				{
					"maxclass" : "button",
					"numoutlets" : 1,
					"outlettype" : [ "bang" ],
					"numinlets" : 1,
					"patching_rect" : [ 375.0, 45.0, 20.0, 20.0 ],
					"id" : "obj-15"
				}

			}
, 			{
				"box" : 				{
					"maxclass" : "newobj",
					"text" : "sprintf set /Slider%d %f",
					"numoutlets" : 1,
					"outlettype" : [ "" ],
					"fontsize" : 10.0,
					"numinlets" : 2,
					"patching_rect" : [ 375.0, 105.0, 114.0, 16.0 ],
					"id" : "obj-13",
					"fontname" : "Helvetica"
				}

			}
, 			{
				"box" : 				{
					"maxclass" : "newobj",
					"text" : "pv id",
					"numoutlets" : 1,
					"outlettype" : [ "" ],
					"fontsize" : 10.0,
					"numinlets" : 1,
					"patching_rect" : [ 150.0, 90.0, 32.0, 16.0 ],
					"id" : "obj-12",
					"fontname" : "Helvetica"
				}

			}
, 			{
				"box" : 				{
					"maxclass" : "inlet",
					"numoutlets" : 1,
					"outlettype" : [ "" ],
					"numinlets" : 0,
					"patching_rect" : [ 375.0, 0.0, 25.0, 25.0 ],
					"id" : "obj-10",
					"comment" : ""
				}

			}
, 			{
				"box" : 				{
					"maxclass" : "outlet",
					"varname" : "valueOutput",
					"numoutlets" : 0,
					"numinlets" : 1,
					"patching_rect" : [ 0.0, 90.0, 25.0, 25.0 ],
					"id" : "obj-16",
					"comment" : ""
				}

			}
, 			{
				"box" : 				{
					"maxclass" : "newobj",
					"text" : "js makeSend.js",
					"numoutlets" : 1,
					"outlettype" : [ "" ],
					"fontsize" : 10.0,
					"numinlets" : 1,
					"patching_rect" : [ 120.0, 120.0, 78.0, 16.0 ],
					"id" : "obj-9",
					"fontname" : "Helvetica"
				}

			}
, 			{
				"box" : 				{
					"maxclass" : "button",
					"numoutlets" : 1,
					"outlettype" : [ "bang" ],
					"numinlets" : 1,
					"patching_rect" : [ 255.0, 0.0, 20.0, 20.0 ],
					"id" : "obj-8"
				}

			}
, 			{
				"box" : 				{
					"maxclass" : "newobj",
					"text" : "value widget_count",
					"numoutlets" : 1,
					"outlettype" : [ "" ],
					"fontsize" : 10.0,
					"numinlets" : 1,
					"patching_rect" : [ 120.0, 60.0, 96.0, 16.0 ],
					"id" : "obj-5",
					"fontname" : "Helvetica"
				}

			}
, 			{
				"box" : 				{
					"maxclass" : "newobj",
					"text" : "loadbang",
					"numoutlets" : 1,
					"outlettype" : [ "bang" ],
					"fontsize" : 10.0,
					"numinlets" : 1,
					"patching_rect" : [ 120.0, 0.0, 52.0, 16.0 ],
					"id" : "obj-4",
					"fontname" : "Helvetica"
				}

			}
, 			{
				"box" : 				{
					"maxclass" : "newobj",
					"text" : "s control_master",
					"numoutlets" : 0,
					"fontsize" : 10.0,
					"numinlets" : 1,
					"patching_rect" : [ 255.0, 90.0, 84.0, 16.0 ],
					"id" : "obj-3",
					"fontname" : "Helvetica"
				}

			}
, 			{
				"box" : 				{
					"maxclass" : "message",
					"text" : "new Slider",
					"numoutlets" : 1,
					"outlettype" : [ "" ],
					"fontsize" : 10.0,
					"numinlets" : 2,
					"patching_rect" : [ 255.0, 60.0, 57.0, 14.0 ],
					"id" : "obj-2",
					"fontname" : "Helvetica"
				}

			}
, 			{
				"box" : 				{
					"maxclass" : "newobj",
					"text" : "receive Slider0",
					"numoutlets" : 1,
					"outlettype" : [ "" ],
					"fontsize" : 10.0,
					"numinlets" : 0,
					"patching_rect" : [ 0.0, 0.0, 100.0, 16.0 ],
					"id" : "obj-1",
					"fontname" : "Helvetica"
				}

			}
, 			{
				"box" : 				{
					"maxclass" : "newobj",
					"text" : "receive Slider3",
					"numoutlets" : 1,
					"outlettype" : [ "" ],
					"fontsize" : 10.0,
					"numinlets" : 0,
					"patching_rect" : [ 0.0, 0.0, 100.0, 16.0 ],
					"id" : "obj-22",
					"fontname" : "Helvetica"
				}

			}
 ],
		"lines" : [ 			{
				"patchline" : 				{
					"source" : [ "obj-18", 0 ],
					"destination" : [ "obj-30", 0 ],
					"hidden" : 0,
					"midpoints" : [  ]
				}

			}
, 			{
				"patchline" : 				{
					"source" : [ "obj-22", 0 ],
					"destination" : [ "obj-16", 0 ],
					"hidden" : 0,
					"midpoints" : [  ]
				}

			}
, 			{
				"patchline" : 				{
					"source" : [ "obj-20", 0 ],
					"destination" : [ "obj-27", 0 ],
					"hidden" : 0,
					"midpoints" : [  ]
				}

			}
, 			{
				"patchline" : 				{
					"source" : [ "obj-26", 0 ],
					"destination" : [ "obj-21", 0 ],
					"hidden" : 0,
					"midpoints" : [  ]
				}

			}
, 			{
				"patchline" : 				{
					"source" : [ "obj-23", 0 ],
					"destination" : [ "obj-26", 0 ],
					"hidden" : 0,
					"midpoints" : [  ]
				}

			}
, 			{
				"patchline" : 				{
					"source" : [ "obj-20", 1 ],
					"destination" : [ "obj-24", 0 ],
					"hidden" : 0,
					"midpoints" : [  ]
				}

			}
, 			{
				"patchline" : 				{
					"source" : [ "obj-24", 0 ],
					"destination" : [ "obj-23", 0 ],
					"hidden" : 0,
					"midpoints" : [  ]
				}

			}
, 			{
				"patchline" : 				{
					"source" : [ "obj-19", 0 ],
					"destination" : [ "obj-20", 0 ],
					"hidden" : 0,
					"midpoints" : [  ]
				}

			}
, 			{
				"patchline" : 				{
					"source" : [ "obj-14", 0 ],
					"destination" : [ "obj-19", 0 ],
					"hidden" : 0,
					"midpoints" : [  ]
				}

			}
, 			{
				"patchline" : 				{
					"source" : [ "obj-18", 0 ],
					"destination" : [ "obj-19", 1 ],
					"hidden" : 0,
					"midpoints" : [  ]
				}

			}
, 			{
				"patchline" : 				{
					"source" : [ "obj-7", 0 ],
					"destination" : [ "obj-14", 0 ],
					"hidden" : 0,
					"midpoints" : [  ]
				}

			}
, 			{
				"patchline" : 				{
					"source" : [ "obj-14", 1 ],
					"destination" : [ "obj-18", 0 ],
					"hidden" : 0,
					"midpoints" : [  ]
				}

			}
, 			{
				"patchline" : 				{
					"source" : [ "obj-13", 0 ],
					"destination" : [ "obj-6", 0 ],
					"hidden" : 0,
					"midpoints" : [  ]
				}

			}
, 			{
				"patchline" : 				{
					"source" : [ "obj-17", 0 ],
					"destination" : [ "obj-13", 0 ],
					"hidden" : 0,
					"midpoints" : [  ]
				}

			}
, 			{
				"patchline" : 				{
					"source" : [ "obj-10", 0 ],
					"destination" : [ "obj-13", 1 ],
					"hidden" : 0,
					"midpoints" : [  ]
				}

			}
, 			{
				"patchline" : 				{
					"source" : [ "obj-13", 0 ],
					"destination" : [ "obj-25", 0 ],
					"hidden" : 0,
					"midpoints" : [  ]
				}

			}
, 			{
				"patchline" : 				{
					"source" : [ "obj-15", 0 ],
					"destination" : [ "obj-17", 0 ],
					"hidden" : 0,
					"midpoints" : [  ]
				}

			}
, 			{
				"patchline" : 				{
					"source" : [ "obj-10", 0 ],
					"destination" : [ "obj-15", 0 ],
					"hidden" : 0,
					"midpoints" : [  ]
				}

			}
, 			{
				"patchline" : 				{
					"source" : [ "obj-5", 0 ],
					"destination" : [ "obj-12", 0 ],
					"hidden" : 0,
					"midpoints" : [  ]
				}

			}
, 			{
				"patchline" : 				{
					"source" : [ "obj-8", 0 ],
					"destination" : [ "obj-5", 0 ],
					"hidden" : 0,
					"midpoints" : [  ]
				}

			}
, 			{
				"patchline" : 				{
					"source" : [ "obj-8", 0 ],
					"destination" : [ "obj-2", 0 ],
					"hidden" : 0,
					"midpoints" : [  ]
				}

			}
, 			{
				"patchline" : 				{
					"source" : [ "obj-4", 0 ],
					"destination" : [ "obj-5", 0 ],
					"hidden" : 0,
					"midpoints" : [  ]
				}

			}
, 			{
				"patchline" : 				{
					"source" : [ "obj-4", 0 ],
					"destination" : [ "obj-2", 0 ],
					"hidden" : 0,
					"midpoints" : [  ]
				}

			}
, 			{
				"patchline" : 				{
					"source" : [ "obj-2", 0 ],
					"destination" : [ "obj-3", 0 ],
					"hidden" : 0,
					"midpoints" : [  ]
				}

			}
, 			{
				"patchline" : 				{
					"source" : [ "obj-5", 0 ],
					"destination" : [ "obj-9", 0 ],
					"hidden" : 0,
					"midpoints" : [  ]
				}

			}
, 			{
				"patchline" : 				{
					"source" : [ "obj-1", 0 ],
					"destination" : [ "obj-16", 0 ],
					"hidden" : 0,
					"midpoints" : [  ]
				}

			}
 ]
	}

}
