{
	"patcher" : 	{
		"fileversion" : 1,
		"appversion" : 		{
			"major" : 5,
			"minor" : 1,
			"revision" : 9
		}
,
		"rect" : [ 507.0, 595.0, 678.0, 289.0 ],
		"bglocked" : 0,
		"defrect" : [ 507.0, 595.0, 678.0, 289.0 ],
		"openrect" : [ 0.0, 0.0, 0.0, 0.0 ],
		"openinpresentation" : 0,
		"default_fontsize" : 10.0,
		"default_fontface" : 0,
		"default_fontname" : "Helvetica",
		"gridonopen" : 0,
		"gridsize" : [ 15.0, 15.0 ],
		"gridsnaponopen" : 0,
		"toolbarvisible" : 1,
		"boxanimatetime" : 200,
		"imprint" : 0,
		"enablehscroll" : 1,
		"enablevscroll" : 1,
		"devicewidth" : 0.0,
		"boxes" : [ 			{
				"box" : 				{
					"maxclass" : "newobj",
					"varname" : "unpacker",
					"text" : "unpack 1. 1. 1.",
					"patching_rect" : [ 0.0, 45.0, 76.0, 16.0 ],
					"numoutlets" : 3,
					"id" : "obj-10",
					"fontname" : "Helvetica",
					"outlettype" : [ "float", "float", "float" ],
					"fontsize" : 10.0,
					"numinlets" : 1
				}

			}
, 			{
				"box" : 				{
					"maxclass" : "outlet",
					"varname" : "valueOutput[2]",
					"patching_rect" : [ 60.0, 90.0, 25.0, 25.0 ],
					"numoutlets" : 0,
					"id" : "obj-6",
					"numinlets" : 1,
					"comment" : ""
				}

			}
, 			{
				"box" : 				{
					"maxclass" : "outlet",
					"varname" : "valueOutput[1]",
					"patching_rect" : [ 30.0, 90.0, 25.0, 25.0 ],
					"numoutlets" : 0,
					"id" : "obj-1",
					"numinlets" : 1,
					"comment" : ""
				}

			}
, 			{
				"box" : 				{
					"maxclass" : "newobj",
					"text" : "pv id",
					"patching_rect" : [ 0.0, 180.0, 32.0, 16.0 ],
					"numoutlets" : 1,
					"id" : "obj-33",
					"fontname" : "Helvetica",
					"outlettype" : [ "" ],
					"fontsize" : 10.0,
					"numinlets" : 1
				}

			}
, 			{
				"box" : 				{
					"maxclass" : "newobj",
					"text" : "sprintf remove Accelerometer%d",
					"patching_rect" : [ 0.0, 210.0, 155.0, 16.0 ],
					"numoutlets" : 1,
					"id" : "obj-35",
					"fontname" : "Helvetica",
					"outlettype" : [ "" ],
					"fontsize" : 10.0,
					"numinlets" : 1
				}

			}
, 			{
				"box" : 				{
					"maxclass" : "newobj",
					"text" : "freebang",
					"patching_rect" : [ 0.0, 150.0, 50.0, 16.0 ],
					"numoutlets" : 1,
					"id" : "obj-29",
					"fontname" : "Helvetica",
					"outlettype" : [ "bang" ],
					"fontsize" : 10.0,
					"numinlets" : 0
				}

			}
, 			{
				"box" : 				{
					"maxclass" : "number",
					"patching_rect" : [ 422.0, 69.0, 50.0, 16.0 ],
					"numoutlets" : 2,
					"id" : "obj-30",
					"fontname" : "Helvetica",
					"outlettype" : [ "int", "bang" ],
					"fontsize" : 10.0,
					"numinlets" : 1
				}

			}
, 			{
				"box" : 				{
					"maxclass" : "newobj",
					"text" : "p resynchronize state between Control and Max",
					"patching_rect" : [ 330.0, 240.0, 222.0, 16.0 ],
					"numoutlets" : 0,
					"id" : "obj-27",
					"fontname" : "Helvetica",
					"fontsize" : 10.0,
					"numinlets" : 1,
					"patcher" : 					{
						"fileversion" : 1,
						"appversion" : 						{
							"major" : 5,
							"minor" : 1,
							"revision" : 9
						}
,
						"rect" : [ 75.0, 119.0, 640.0, 480.0 ],
						"bglocked" : 0,
						"defrect" : [ 75.0, 119.0, 640.0, 480.0 ],
						"openrect" : [ 0.0, 0.0, 0.0, 0.0 ],
						"openinpresentation" : 0,
						"default_fontsize" : 12.0,
						"default_fontface" : 0,
						"default_fontname" : "Arial",
						"gridonopen" : 0,
						"gridsize" : [ 15.0, 15.0 ],
						"gridsnaponopen" : 0,
						"toolbarvisible" : 1,
						"boxanimatetime" : 200,
						"imprint" : 0,
						"enablehscroll" : 1,
						"enablevscroll" : 1,
						"devicewidth" : 0.0,
						"boxes" : [ 							{
								"box" : 								{
									"maxclass" : "comment",
									"text" : "Future Work...",
									"patching_rect" : [ 153.0, 210.0, 150.0, 20.0 ],
									"numoutlets" : 0,
									"id" : "obj-3",
									"fontname" : "Arial",
									"fontsize" : 12.0,
									"numinlets" : 1
								}

							}
, 							{
								"box" : 								{
									"maxclass" : "inlet",
									"patching_rect" : [ 91.0, 155.0, 25.0, 25.0 ],
									"numoutlets" : 1,
									"id" : "obj-1",
									"outlettype" : [ "bang" ],
									"numinlets" : 0,
									"comment" : ""
								}

							}
 ],
						"lines" : [  ]
					}
,
					"saved_object_attributes" : 					{
						"fontname" : "Arial",
						"default_fontface" : 0,
						"globalpatchername" : "",
						"fontface" : 0,
						"default_fontname" : "Arial",
						"fontsize" : 12.0,
						"default_fontsize" : 12.0
					}

				}

			}
, 			{
				"box" : 				{
					"maxclass" : "newobj",
					"text" : "s control_master",
					"patching_rect" : [ 396.0, 204.0, 84.0, 16.0 ],
					"numoutlets" : 0,
					"id" : "obj-21",
					"fontname" : "Helvetica",
					"fontsize" : 10.0,
					"numinlets" : 1
				}

			}
, 			{
				"box" : 				{
					"maxclass" : "newobj",
					"text" : "pv id",
					"patching_rect" : [ 396.0, 146.0, 32.0, 16.0 ],
					"numoutlets" : 1,
					"id" : "obj-23",
					"fontname" : "Helvetica",
					"outlettype" : [ "" ],
					"fontsize" : 10.0,
					"numinlets" : 1
				}

			}
, 			{
				"box" : 				{
					"maxclass" : "button",
					"patching_rect" : [ 396.0, 116.0, 20.0, 20.0 ],
					"numoutlets" : 1,
					"id" : "obj-24",
					"outlettype" : [ "bang" ],
					"numinlets" : 1
				}

			}
, 			{
				"box" : 				{
					"maxclass" : "newobj",
					"text" : "sprintf add Accelerometer %d",
					"patching_rect" : [ 396.0, 176.0, 141.0, 16.0 ],
					"numoutlets" : 1,
					"id" : "obj-26",
					"fontname" : "Helvetica",
					"outlettype" : [ "" ],
					"fontsize" : 10.0,
					"numinlets" : 1
				}

			}
, 			{
				"box" : 				{
					"maxclass" : "newobj",
					"text" : "t b b",
					"patching_rect" : [ 382.0, 93.0, 32.5, 16.0 ],
					"numoutlets" : 2,
					"id" : "obj-20",
					"fontname" : "Helvetica",
					"outlettype" : [ "bang", "bang" ],
					"fontsize" : 10.0,
					"numinlets" : 1
				}

			}
, 			{
				"box" : 				{
					"maxclass" : "newobj",
					"text" : "select",
					"patching_rect" : [ 382.0, 69.0, 37.0, 16.0 ],
					"numoutlets" : 2,
					"id" : "obj-19",
					"fontname" : "Helvetica",
					"outlettype" : [ "bang", "" ],
					"fontsize" : 10.0,
					"numinlets" : 2
				}

			}
, 			{
				"box" : 				{
					"maxclass" : "newobj",
					"text" : "pv id",
					"patching_rect" : [ 400.0, 44.0, 32.0, 16.0 ],
					"numoutlets" : 1,
					"id" : "obj-18",
					"fontname" : "Helvetica",
					"outlettype" : [ "" ],
					"fontsize" : 10.0,
					"numinlets" : 1
				}

			}
, 			{
				"box" : 				{
					"maxclass" : "newobj",
					"text" : "t i b",
					"patching_rect" : [ 382.0, 23.0, 32.5, 16.0 ],
					"numoutlets" : 2,
					"id" : "obj-14",
					"fontname" : "Helvetica",
					"outlettype" : [ "int", "bang" ],
					"fontsize" : 10.0,
					"numinlets" : 1
				}

			}
, 			{
				"box" : 				{
					"maxclass" : "newobj",
					"text" : "r please-add-yourself",
					"patching_rect" : [ 382.0, 0.0, 104.0, 16.0 ],
					"numoutlets" : 1,
					"id" : "obj-7",
					"fontname" : "Helvetica",
					"outlettype" : [ "" ],
					"fontsize" : 10.0,
					"numinlets" : 0
				}

			}
, 			{
				"box" : 				{
					"maxclass" : "newobj",
					"text" : "pv id",
					"patching_rect" : [ 150.0, 90.0, 32.0, 16.0 ],
					"numoutlets" : 1,
					"id" : "obj-12",
					"fontname" : "Helvetica",
					"outlettype" : [ "" ],
					"fontsize" : 10.0,
					"numinlets" : 1
				}

			}
, 			{
				"box" : 				{
					"maxclass" : "outlet",
					"varname" : "valueOutput",
					"patching_rect" : [ 0.0, 90.0, 25.0, 25.0 ],
					"numoutlets" : 0,
					"id" : "obj-16",
					"numinlets" : 1,
					"comment" : ""
				}

			}
, 			{
				"box" : 				{
					"maxclass" : "newobj",
					"text" : "js make_accelerometer_receive.js",
					"patching_rect" : [ 120.0, 120.0, 162.0, 16.0 ],
					"numoutlets" : 1,
					"id" : "obj-9",
					"fontname" : "Helvetica",
					"outlettype" : [ "" ],
					"fontsize" : 10.0,
					"numinlets" : 1
				}

			}
, 			{
				"box" : 				{
					"maxclass" : "button",
					"patching_rect" : [ 255.0, 0.0, 20.0, 20.0 ],
					"numoutlets" : 1,
					"id" : "obj-8",
					"outlettype" : [ "bang" ],
					"numinlets" : 1
				}

			}
, 			{
				"box" : 				{
					"maxclass" : "newobj",
					"text" : "value widget_count",
					"patching_rect" : [ 120.0, 60.0, 96.0, 16.0 ],
					"numoutlets" : 1,
					"id" : "obj-5",
					"fontname" : "Helvetica",
					"outlettype" : [ "" ],
					"fontsize" : 10.0,
					"numinlets" : 1
				}

			}
, 			{
				"box" : 				{
					"maxclass" : "newobj",
					"text" : "loadbang",
					"patching_rect" : [ 120.0, 0.0, 52.0, 16.0 ],
					"numoutlets" : 1,
					"id" : "obj-4",
					"fontname" : "Helvetica",
					"outlettype" : [ "bang" ],
					"fontsize" : 10.0,
					"numinlets" : 1
				}

			}
, 			{
				"box" : 				{
					"maxclass" : "newobj",
					"text" : "s control_master",
					"patching_rect" : [ 255.0, 90.0, 84.0, 16.0 ],
					"numoutlets" : 0,
					"id" : "obj-3",
					"fontname" : "Helvetica",
					"fontsize" : 10.0,
					"numinlets" : 1
				}

			}
, 			{
				"box" : 				{
					"maxclass" : "message",
					"text" : "new Accelerometer",
					"patching_rect" : [ 255.0, 60.0, 96.0, 14.0 ],
					"numoutlets" : 1,
					"id" : "obj-2",
					"fontname" : "Helvetica",
					"outlettype" : [ "" ],
					"fontsize" : 10.0,
					"numinlets" : 2
				}

			}
, 			{
				"box" : 				{
					"maxclass" : "newobj",
					"text" : "receive Accelerometer6",
					"patching_rect" : [ 0.0, 0.0, 113.0, 16.0 ],
					"numoutlets" : 1,
					"id" : "obj-11",
					"fontname" : "Helvetica",
					"outlettype" : [ "" ],
					"fontsize" : 10.0,
					"numinlets" : 0
				}

			}
 ],
		"lines" : [ 			{
				"patchline" : 				{
					"source" : [ "obj-10", 1 ],
					"destination" : [ "obj-1", 0 ],
					"hidden" : 0,
					"midpoints" : [  ]
				}

			}
, 			{
				"patchline" : 				{
					"source" : [ "obj-10", 2 ],
					"destination" : [ "obj-6", 0 ],
					"hidden" : 0,
					"midpoints" : [  ]
				}

			}
, 			{
				"patchline" : 				{
					"source" : [ "obj-10", 0 ],
					"destination" : [ "obj-16", 0 ],
					"hidden" : 0,
					"midpoints" : [ 9.5, 88.0 ]
				}

			}
, 			{
				"patchline" : 				{
					"source" : [ "obj-11", 0 ],
					"destination" : [ "obj-10", 0 ],
					"hidden" : 0,
					"midpoints" : [  ]
				}

			}
, 			{
				"patchline" : 				{
					"source" : [ "obj-29", 0 ],
					"destination" : [ "obj-33", 0 ],
					"hidden" : 0,
					"midpoints" : [  ]
				}

			}
, 			{
				"patchline" : 				{
					"source" : [ "obj-18", 0 ],
					"destination" : [ "obj-30", 0 ],
					"hidden" : 0,
					"midpoints" : [  ]
				}

			}
, 			{
				"patchline" : 				{
					"source" : [ "obj-20", 0 ],
					"destination" : [ "obj-27", 0 ],
					"hidden" : 0,
					"midpoints" : [  ]
				}

			}
, 			{
				"patchline" : 				{
					"source" : [ "obj-20", 1 ],
					"destination" : [ "obj-24", 0 ],
					"hidden" : 0,
					"midpoints" : [  ]
				}

			}
, 			{
				"patchline" : 				{
					"source" : [ "obj-24", 0 ],
					"destination" : [ "obj-23", 0 ],
					"hidden" : 0,
					"midpoints" : [  ]
				}

			}
, 			{
				"patchline" : 				{
					"source" : [ "obj-19", 0 ],
					"destination" : [ "obj-20", 0 ],
					"hidden" : 0,
					"midpoints" : [  ]
				}

			}
, 			{
				"patchline" : 				{
					"source" : [ "obj-14", 0 ],
					"destination" : [ "obj-19", 0 ],
					"hidden" : 0,
					"midpoints" : [  ]
				}

			}
, 			{
				"patchline" : 				{
					"source" : [ "obj-18", 0 ],
					"destination" : [ "obj-19", 1 ],
					"hidden" : 0,
					"midpoints" : [  ]
				}

			}
, 			{
				"patchline" : 				{
					"source" : [ "obj-7", 0 ],
					"destination" : [ "obj-14", 0 ],
					"hidden" : 0,
					"midpoints" : [  ]
				}

			}
, 			{
				"patchline" : 				{
					"source" : [ "obj-14", 1 ],
					"destination" : [ "obj-18", 0 ],
					"hidden" : 0,
					"midpoints" : [  ]
				}

			}
, 			{
				"patchline" : 				{
					"source" : [ "obj-5", 0 ],
					"destination" : [ "obj-12", 0 ],
					"hidden" : 0,
					"midpoints" : [  ]
				}

			}
, 			{
				"patchline" : 				{
					"source" : [ "obj-8", 0 ],
					"destination" : [ "obj-5", 0 ],
					"hidden" : 0,
					"midpoints" : [  ]
				}

			}
, 			{
				"patchline" : 				{
					"source" : [ "obj-8", 0 ],
					"destination" : [ "obj-2", 0 ],
					"hidden" : 0,
					"midpoints" : [  ]
				}

			}
, 			{
				"patchline" : 				{
					"source" : [ "obj-4", 0 ],
					"destination" : [ "obj-5", 0 ],
					"hidden" : 0,
					"midpoints" : [  ]
				}

			}
, 			{
				"patchline" : 				{
					"source" : [ "obj-4", 0 ],
					"destination" : [ "obj-2", 0 ],
					"hidden" : 0,
					"midpoints" : [  ]
				}

			}
, 			{
				"patchline" : 				{
					"source" : [ "obj-2", 0 ],
					"destination" : [ "obj-3", 0 ],
					"hidden" : 0,
					"midpoints" : [  ]
				}

			}
, 			{
				"patchline" : 				{
					"source" : [ "obj-5", 0 ],
					"destination" : [ "obj-9", 0 ],
					"hidden" : 0,
					"midpoints" : [  ]
				}

			}
, 			{
				"patchline" : 				{
					"source" : [ "obj-26", 0 ],
					"destination" : [ "obj-21", 0 ],
					"hidden" : 0,
					"midpoints" : [  ]
				}

			}
, 			{
				"patchline" : 				{
					"source" : [ "obj-23", 0 ],
					"destination" : [ "obj-26", 0 ],
					"hidden" : 0,
					"midpoints" : [  ]
				}

			}
, 			{
				"patchline" : 				{
					"source" : [ "obj-33", 0 ],
					"destination" : [ "obj-35", 0 ],
					"hidden" : 0,
					"midpoints" : [  ]
				}

			}
 ]
	}

}
